<svg width="103" height="90" viewBox="0 0 103 90" fill="none" xmlns="http://www.w3.org/2000/svg">
<path d="M3.064 71C2.36 71 1.784 70.776 1.336 70.328C0.888 69.88 0.664 69.304 0.664 68.6V5.23999C0.664 4.536 0.888 3.96 1.336 3.512C1.784 3.064 2.36 2.84 3.064 2.84H14.392C15.096 2.84 15.672 3.064 16.12 3.512C16.568 3.96 16.792 4.536 16.792 5.23999V68.6C16.792 69.304 16.568 69.88 16.12 70.328C15.672 70.776 15.096 71 14.392 71H3.064ZM51.0768 71.96C46.3408 71.96 42.1488 71.096 38.5008 69.368C34.8528 67.64 31.9408 65.144 29.7648 61.88C27.6528 58.552 26.5008 54.584 26.3088 49.976C26.2448 48.952 26.2128 47.672 26.2128 46.136C26.2128 44.536 26.2448 43.224 26.3088 42.2C26.5008 37.528 27.6528 33.56 29.7648 30.296C31.8768 26.968 34.7568 24.44 38.4048 22.712C42.1168 20.984 46.3408 20.12 51.0768 20.12C55.4928 20.12 59.2688 20.76 62.4048 22.04C65.5408 23.256 68.1008 24.792 70.0848 26.648C72.0688 28.504 73.5408 30.424 74.5008 32.408C75.5248 34.328 76.0688 36.024 76.1328 37.496C76.1968 38.136 75.9728 38.712 75.4608 39.224C74.9488 39.672 74.3728 39.896 73.7328 39.896H61.5408C60.8368 39.896 60.2928 39.736 59.9088 39.416C59.5248 39.096 59.1728 38.616 58.8528 37.976C58.0848 35.992 57.0928 34.584 55.8768 33.752C54.7248 32.92 53.2208 32.504 51.3648 32.504C48.8048 32.504 46.8208 33.336 45.4128 35C44.0688 36.664 43.3328 39.224 43.2048 42.68C43.1408 45.24 43.1408 47.512 43.2048 49.496C43.3328 53.016 44.0688 55.576 45.4128 57.176C46.8208 58.776 48.8048 59.576 51.3648 59.576C53.3488 59.576 54.9168 59.16 56.0688 58.328C57.2208 57.496 58.1488 56.088 58.8528 54.104C59.1728 53.464 59.5248 52.984 59.9088 52.664C60.2928 52.344 60.8368 52.184 61.5408 52.184H73.7328C74.3728 52.184 74.9488 52.44 75.4608 52.952C75.9728 53.4 76.1968 53.944 76.1328 54.584C76.0688 55.672 75.7488 56.952 75.1728 58.424C74.5968 59.832 73.7008 61.336 72.4848 62.936C71.2688 64.536 69.6688 66.04 67.6848 67.448C65.7648 68.792 63.4288 69.88 60.6768 70.712C57.9248 71.544 54.7248 71.96 51.0768 71.96ZM76.4057 89.24C75.7017 89.24 75.1257 89.016 74.6777 88.568C74.2297 88.12 74.0057 87.544 74.0057 86.84V79.064C74.0057 78.36 74.2297 77.784 74.6777 77.336C75.1257 76.888 75.7017 76.664 76.4057 76.664H79.9578C81.5578 76.664 82.7738 76.344 83.6058 75.704C84.4378 75.128 85.0138 74.296 85.3338 73.208C85.6538 72.184 85.8138 71 85.8138 69.656V23.48C85.8138 22.776 86.0378 22.2 86.4858 21.752C86.9978 21.304 87.5738 21.08 88.2138 21.08H100.118C100.822 21.08 101.398 21.304 101.846 21.752C102.294 22.2 102.518 22.776 102.518 23.48V70.04C102.518 74.2 101.686 77.688 100.022 80.504C98.4218 83.384 96.0858 85.56 93.0138 87.032C89.9418 88.504 86.1978 89.24 81.7818 89.24H76.4057ZM88.1178 13.88C87.4778 13.88 86.9018 13.656 86.3898 13.208C85.9418 12.76 85.7178 12.184 85.7178 11.48V2.936C85.7178 2.232 85.9418 1.656 86.3898 1.20799C86.9018 0.695997 87.4778 0.439999 88.1178 0.439999H100.214C100.854 0.439999 101.398 0.695997 101.846 1.20799C102.358 1.656 102.614 2.232 102.614 2.936V11.48C102.614 12.184 102.358 12.76 101.846 13.208C101.398 13.656 100.854 13.88 100.214 13.88H88.1178Z" fill="black"/>
</svg>
