<svg width="254" height="134" viewBox="0 0 254 134" fill="none" xmlns="http://www.w3.org/2000/svg">
<path d="M146.064 90C145.36 90 144.784 89.776 144.336 89.328C143.888 88.88 143.664 88.304 143.664 87.6V24.24C143.664 23.536 143.888 22.96 144.336 22.512C144.784 22.064 145.36 21.84 146.064 21.84H157.392C158.096 21.84 158.672 22.064 159.12 22.512C159.568 22.96 159.792 23.536 159.792 24.24V87.6C159.792 88.304 159.568 88.88 159.12 89.328C158.672 89.776 158.096 90 157.392 90H146.064ZM194.077 90.96C189.341 90.96 185.149 90.096 181.501 88.368C177.853 86.64 174.941 84.144 172.765 80.88C170.653 77.552 169.501 73.584 169.309 68.976C169.245 67.952 169.213 66.672 169.213 65.136C169.213 63.536 169.245 62.224 169.309 61.2C169.501 56.528 170.653 52.56 172.765 49.296C174.877 45.968 177.757 43.44 181.405 41.712C185.117 39.984 189.341 39.12 194.077 39.12C198.493 39.12 202.269 39.76 205.405 41.04C208.541 42.256 211.101 43.792 213.085 45.648C215.069 47.504 216.541 49.424 217.501 51.408C218.525 53.328 219.069 55.024 219.133 56.496C219.197 57.136 218.973 57.712 218.461 58.224C217.949 58.672 217.373 58.896 216.733 58.896H204.541C203.837 58.896 203.293 58.736 202.909 58.416C202.525 58.096 202.173 57.616 201.853 56.976C201.085 54.992 200.093 53.584 198.877 52.752C197.725 51.92 196.221 51.504 194.365 51.504C191.805 51.504 189.821 52.336 188.413 54C187.069 55.664 186.333 58.224 186.205 61.68C186.141 64.24 186.141 66.512 186.205 68.496C186.333 72.016 187.069 74.576 188.413 76.176C189.821 77.776 191.805 78.576 194.365 78.576C196.349 78.576 197.917 78.16 199.069 77.328C200.221 76.496 201.149 75.088 201.853 73.104C202.173 72.464 202.525 71.984 202.909 71.664C203.293 71.344 203.837 71.184 204.541 71.184H216.733C217.373 71.184 217.949 71.44 218.461 71.952C218.973 72.4 219.197 72.944 219.133 73.584C219.069 74.672 218.749 75.952 218.173 77.424C217.597 78.832 216.701 80.336 215.485 81.936C214.269 83.536 212.669 85.04 210.685 86.448C208.765 87.792 206.429 88.88 203.677 89.712C200.925 90.544 197.725 90.96 194.077 90.96ZM219.406 108.24C218.702 108.24 218.126 108.016 217.678 107.568C217.23 107.12 217.006 106.544 217.006 105.84V98.064C217.006 97.36 217.23 96.784 217.678 96.336C218.126 95.888 218.702 95.664 219.406 95.664H222.958C224.558 95.664 225.774 95.344 226.606 94.704C227.438 94.128 228.014 93.296 228.334 92.208C228.654 91.184 228.814 90 228.814 88.656V42.48C228.814 41.776 229.038 41.2 229.486 40.752C229.998 40.304 230.574 40.08 231.214 40.08H243.118C243.822 40.08 244.398 40.304 244.846 40.752C245.294 41.2 245.518 41.776 245.518 42.48V89.04C245.518 93.2 244.686 96.688 243.022 99.504C241.422 102.384 239.086 104.56 236.014 106.032C232.942 107.504 229.198 108.24 224.782 108.24H219.406ZM231.118 32.88C230.478 32.88 229.902 32.656 229.39 32.208C228.942 31.76 228.718 31.184 228.718 30.48V21.936C228.718 21.232 228.942 20.656 229.39 20.208C229.902 19.696 230.478 19.44 231.118 19.44H243.214C243.854 19.44 244.398 19.696 244.846 20.208C245.358 20.656 245.614 21.232 245.614 21.936V30.48C245.614 31.184 245.358 31.76 244.846 32.208C244.398 32.656 243.854 32.88 243.214 32.88H231.118Z" fill="white"/>
<path d="M109.674 91.5383L31.9054 91.1559C30.329 91.1482 28.8414 91.8843 27.8914 93.1423L6.01481 122.11C3.53399 125.395 5.86437 130.103 9.98109 130.124L128.616 130.707C132.596 130.726 135.002 126.315 132.83 122.979L113.84 93.8106C112.922 92.4005 111.356 91.5466 109.674 91.5383Z" stroke="white" stroke-width="5"/>
<path d="M115 14.5H26C23.7909 14.5 22 16.2909 22 18.5V79.5C22 81.7091 23.7909 83.5 26 83.5H115C117.209 83.5 119 81.7091 119 79.5V18.5C119 16.2909 117.209 14.5 115 14.5Z" stroke="white" stroke-width="5"/>
<path d="M107 21H33C30.7909 21 29 22.7909 29 25V73C29 75.2091 30.7909 77 33 77H107C109.209 77 111 75.2091 111 73V25C111 22.7909 109.209 21 107 21Z" stroke="white" stroke-width="5"/>
<path d="M34 99H106" stroke="white" stroke-width="5" stroke-linecap="round"/>
<path d="M29 106H111" stroke="white" stroke-width="5" stroke-linecap="round"/>
<path d="M44 121L95 121" stroke="white" stroke-width="7" stroke-linecap="round"/>
</svg>
